<?xml version="1.0" encoding="utf-8"?>
<!-- Generator: Adobe Illustrator 18.0.0, SVG Export Plug-In . SVG Version: 6.00 Build 0)  -->
<!DOCTYPE svg PUBLIC "-//W3C//DTD SVG 1.1//EN" "http://www.w3.org/Graphics/SVG/1.1/DTD/svg11.dtd">
<svg version="1.1" id="Слой_1" xmlns="http://www.w3.org/2000/svg" xmlns:xlink="http://www.w3.org/1999/xlink" x="0px" y="0px"
	 viewBox="0 45 1024 712" enable-background="new 0 45 1024 712" xml:space="preserve">
<path fill="#000000"      d="
	M1026.3,114l0.7-11.7c-1.8-0.1-177.3-9.3-216.7-34.4l-0.4-0.2c-0.4-0.2-9.6-5.2-19.6-9.5c-17.2-7.4-25.8-8.4-30.5-3.5
	c-5.5,5.7-0.3,14.1,5.5,21.6l0.4,0.5c0.3,0.3,28.8,30.2,21.7,56.5c-3.7,13.7-16.9,24.5-39.3,31.9c-6.5,1-70.8,11.5-134.5,26.5
	c-1.1,0.3-2.2,0.5-3.3,0.8c-6-3.9-12-6.8-17.7-7.8c0,0-11.8-12.4-23.1-8.9c0,0-7.7-8.3-11.8-5.3c0,0-17.8-2.5-20.1-0.6
	c0,0-42.8-6.4-40.3-1.6c0,0-28.1-2.8-34.2,2.5c0,0-12.4,0.6-17.5,4.8c0,0-8,1.7-16.9-2.9c0,0-43.7-19.5-63,7.3
	c0,0-17.5,24.3-11.5,24.4c0,0,0.1,10.1,10.3,6.9c0,0,4.3,10.8,22.1,2.6c0,0-8.2,16.7,0.8,17.9c0,0,10.3-6.6,24.2-2.8
	c0,0,12.5,7.6,17.1,5.5c0,0,4.7,8,13.3,4c0,0,3.5,8.4,16.7,6.3l17.2-4c0,0,0.9,0.8,2.5,1.8c-3.5,3.9-5,7.4-5.6,10.6
	c-1.2,1.7-2.4,4.5-2.2,8.2c0.3,7.6,6.3,15.8,17.8,24.3l0.4,0.3l0.4,0.2c0.2,0.1,20.2,10.8,22.6,27.9c1.1,7.4-1.3,15.1-7,23
	c-3.4,0.7-11.7-12.3-21.8-11.1c0,0-11.7-7.8-22.7-5.8l-67.4-29.2c0,0-55.7-29.8-78.4-29.2l-27.9-6.5c0,0-4.5-6.5-20.1-5.8
	c0,0-3.2-9.7-22.7-5.2c0,0-40.8,1.9-51.2,13.6c0,0-10.4,4.5-10.4,9.1l-35,5.2c0,0-36.9-20.1-53.8-23.3c0,0-31.1-25.3-42.8-21.4
	c0,0-7.8-2.8-9.7-0.4c0,0-33,23.7,14.9,65.8c0,0,2.6,0.6,7.1,1.3c0,0,18.1,4.5,27.2,20.1c0,0,0.6,5.2,5.2,12.3c0,0,6.5,11.7,22,11.7
	c0,0,25.9,0,31.7-3.9c0,0,4.5,3.9,3.2,6.5c0,0,24,1.9,29.2,5.2l3.2-9.1c0,0,31.1,9.7,47.9,9.1c0,0,16.8,7.1,26.6,3.2
	c0,0,27.2,16.2,40.8,11.7c0,0,52.5,38.9,87.5,49.2c0,0,31.7,12.3,32.6,37.6l-0.8,7c-15.2-1-90.8,31.2-90.8,31.2
	c-8.3-2.1-26,11.5-26,11.5c-73.9,1-93.7,40.6-93.7,40.6c-26,11.5-31,27.5-31,27.5s-25.6,8.2-23.9,12.4l-32.5,12.7
	c0,0-27.8-5.2-58.6-6.4c0,0-32.8-11.3-42.1-3.2c0,0-8.2,0.5-9.1,3.4c0,0-21.3,34.7,39.2,55c0,0,4.9,4.1,9.3,2.9
	c0,0,10.6,0.6,25,11.4c0,0,2.6,2.3,9.5,7.1c0,0,10.5,8.3,24.8,2.2c0,0,23.9-10,27.8-15.9c0,0,5.7,1.8,5.5,4.7c0,0,22.9-7.5,28.9-6.5
	l-0.5-9.6c0,0,32.4-3.1,47.7-10.2c0,0,42.8-12,57.7-17.5c28-10.4,30.5-16.5,30.5-16.5l9.1-2.6c1.9,16.2,80.1-5.2,80.1-5.2
	c8.2-3.9,32-6.5,32-6.5c62.8,0,96.5-14.3,96.5-14.3c19.4-6.5,65.4-31.1,65.4-31.1c4.5-7.1,20.1,0,20.1,0c-13,20.1-0.6,26.6-0.6,26.6
	l-14.3,22.7c-9.1,9.1-10.2,20.7-10.2,20.7c-5.2-0.6-4,10.4-4,10.4l-5.8,6.5c-4.5,5.2-22,8.4-22,8.4c-13.6,3.9-13,13-13,13l-12.3,1.9
	c-18.1,0-24,11-24,11l-18.1,1.3c-13.6,1.9-14.3,11-14.3,11c-9.7-1.3-11.7,7.8-11.7,7.8c-5.2-0.6-14.9,10.4-14.9,10.4
	c-12.3,7.8-24.6,4.5-24.6,4.5c-8.4,3.9,5.2,17.5,5.2,17.5c-20.1-2.6-20.7,9.1-20.7,9.1c-11,0-7.8,9.7-7.8,9.7
	c-5.8,1.9,19.4,20.1,19.4,20.1c27.9,20.1,64.1-11.7,64.1-11.7c7.1-7.1,15.5-7.8,15.5-7.8c6.5,2.5,18.8-0.6,18.8-0.6
	c7.8,3.2,34.3-7.8,34.3-7.8c13,8.4,62.9-10.4,62.9-10.4c31.7-18.1,48.6-55.1,48.6-55.1l10.4-21.4c10.4-4.5,11.7-24.6,14.3-25.9
	c2.6-1.3,13.6-25.9,13.6-25.9c13-5.2,29.8-44.1,29.8-44.1c10.4-11,5.2-35,5.2-35c-7.1-11.7,2.6-33.7,2.6-33.7c9.7-2.6,6.5-13,6.5-13
	c9.1-2.6,9.7-8.4,9.7-8.4c3.2-0.6,13.6-5.2,13.6-5.2l3.9,5.2l39.5-26.6l-1.3-7.8c12.3-8.4,16.2-35.1,16.2-35.1
	c16.8-31.9-5.2-63.4-5.2-63.4c-25.3-33-65.4-24.6-65.4-24.6c-13-5.2-32.4,0-32.4,0l-7-3.1l-9.5,4.7c0,0-24.9-40.9-50.9-47.4
	c0,0-4.7-5.3-10.9-5.9c0,0-13.9-18.6-30.9-33.3c64.5-14.9,127.7-25,128.3-25.1l0.5-0.1l0.5-0.2c26.8-8.8,42.9-22.4,47.7-40.3
	c8.4-31.2-21.1-63.6-24.3-67c-1.7-2.2-2.8-3.8-3.6-5.1c6.8,1.7,19.8,7.3,31.9,13.8C846,104.5,1019,113.6,1026.3,114z M677,350.6
	c0,0,12.5-30.1,44.7-44.3c0,0,65,63.5,70.9,105.4c0,0-41.8,40.4-83.7,17.7C708.9,429.3,661.8,404.2,677,350.6z M539.8,306.7
	c0,0-9.3,2.3-2.1,26.6c0,0,2.4,11.5-12,12.9c0,0-4.2-2.5-8.9-4.9c6.3-9.5,8.7-19.1,7.4-28.7c-3.1-21.5-24.8-34.4-28.4-36.4
	c-12.5-9.4-13.3-15-12.5-16.6l1.6-0.9l0.2-2.9c0.1-1.7,1.4-5.1,7.6-9.8c2.6-0.1,5.6-0.6,8.8-1.6l12-1.7c0,0,2.3,8.7,16.1,8.5
	c0,0,17.2-1.9,23,1.6l7.5,4.4c0,0,2.5,10.7,7,8.6c0,0,4.9,15.2,13.5,14.5l1.4,5C582,285.4,547.6,294.6,539.8,306.7z"/>
</svg>
