<?xml version="1.0" encoding="utf-8"?>
<!-- Generator: Adobe Illustrator 18.1.0, SVG Export Plug-In . SVG Version: 6.00 Build 0)  -->
<svg version="1.1" id="Layer_1" xmlns="http://www.w3.org/2000/svg" xmlns:xlink="http://www.w3.org/1999/xlink" x="0px" y="0px"
	 viewBox="0 0 200 200" enable-background="new 0 0 200 200" xml:space="preserve">
<g>
	<path fill="#454545" d="M192.4,8.9c4.2,0,7.6,3.4,7.6,7.5V156c0,4.2-3.4,7.5-7.6,7.5H7.6c-4.2,0-7.6-3.4-7.6-7.5V16.4
		c0-4.2,3.4-7.5,7.6-7.5H192.4z"/>
	<rect x="10.8" y="19.3" fill="#344D5C" width="178.5" height="133.9"/>
	<rect x="10.8" y="19.3" fill="#344D5C" width="17.1" height="133.9"/>
	<rect x="27.8" y="29.4" fill="#FFFFFF" width="2.8" height="123.7"/>
	<rect x="10.8" y="19.3" opacity="0.8" fill="#FFFFFF" enable-background="new    " width="178.5" height="10.5"/>
	<circle fill="#E27C3E" cx="17.8" cy="24.5" r="2.8"/>
	<circle fill="#EFC849" cx="25.7" cy="24.5" r="2.8"/>
	<circle fill="#1ABC9C" cx="33.5" cy="24.5" r="2.8"/>
	<rect x="15.2" y="33.7" fill="#C9C9C9" width="8.1" height="4.1"/>
	<g>
		<rect x="33.3" y="43.1" fill="#E27C3E" width="13.6" height="4.1"/>
		<rect x="15.2" y="43.1" fill="#C9C9C9" width="8.1" height="4.1"/>
	</g>
	<g>
		<rect x="15.2" y="97.4" fill="#C9C9C9" width="8.1" height="4.1"/>
		<rect x="33.3" y="97.4" fill="#E27C3E" width="13.6" height="4.1"/>
	</g>
	<g>
		<rect x="15.2" y="106.4" fill="#C9C9C9" width="8.1" height="4.1"/>
		<rect x="33.3" y="106.4" fill="#E27C3E" width="13.6" height="4.1"/>
	</g>
	<g>
		<rect x="15.2" y="133.6" fill="#C9C9C9" width="8.1" height="4.1"/>
		<rect x="15.2" y="142.6" fill="#C9C9C9" width="8.1" height="4.1"/>
		<rect x="33.3" y="133.6" fill="#E27C3E" width="13.6" height="4.1"/>
	</g>
	<g>
		<rect x="15.2" y="115.5" fill="#C9C9C9" width="8.1" height="4.1"/>
		<rect x="38.8" y="115.5" fill="#77B3D4" width="29.5" height="4.1"/>
		<rect x="73.3" y="115.5" fill="#1ABC9C" width="34.2" height="4.1"/>
		<rect x="112.3" y="115.5" fill="#F39C12" width="21.3" height="4.1"/>
	</g>
	<g>
		<rect x="15.2" y="52.1" fill="#C9C9C9" width="8.1" height="4.1"/>
		<rect x="38.3" y="52.1" fill="#77B3D4" width="13.6" height="4.1"/>
		<rect x="56.1" y="52.1" fill="#7D3D11" width="21.3" height="4.1"/>
	</g>
	<g>
		<rect x="15.2" y="61.2" fill="#C9C9C9" width="8.1" height="4.1"/>
		<rect x="117.7" y="61.2" fill="#1ABC9C" width="21.3" height="4.1"/>
		<rect x="38.3" y="61.2" fill="#89C0C7" width="28.4" height="4.1"/>
		<rect x="69.5" y="61.2" fill="#F39C12" width="44.5" height="4.1"/>
	</g>
	<g>
		<rect x="15.2" y="88.3" fill="#C9C9C9" width="8.1" height="4.1"/>
		<rect x="38.3" y="88.3" fill="#D0D7D8" width="44.5" height="4.1"/>
		<rect x="90" y="88.3" fill="#231F20" width="27.6" height="4.1"/>
		<rect x="123.2" y="88.3" fill="#89C0C7" width="27.6" height="4.1"/>
	</g>
	<g>
		<rect x="15.2" y="79.3" fill="#C9C9C9" width="8.1" height="4.1"/>
		<rect x="38.3" y="79.3" fill="#77B3D4" width="44.5" height="4.1"/>
		<rect x="87.4" y="79.3" fill="#FADE85" width="44.5" height="4.1"/>
	</g>
	<g>
		<rect x="15.2" y="124.5" fill="#C9C9C9" width="8.1" height="4.1"/>
		<rect x="39.3" y="124.5" fill="#E74C3C" width="44.5" height="4.1"/>
		<rect x="91.7" y="124.5" fill="#89C0C7" width="44.5" height="4.1"/>
	</g>
	<g>
		<rect x="15.2" y="70.2" fill="#C9C9C9" width="8.1" height="4.1"/>
		<rect x="38.3" y="70.2" fill="#FFA200" width="21.3" height="4.1"/>
		<rect x="65.1" y="70.2" fill="#FFD54E" width="44.5" height="4.1"/>
	</g>
	<g>
		<polygon fill="#FFFFFF" points="38.5,33.2 37.9,32.6 34.7,35.8 34.7,35.8 34.7,35.8 37.9,39 38.5,38.4 35.9,35.8 		"/>
		<rect x="42.1" y="33.7" fill="#FFFFFF" width="8.1" height="4.1"/>
		<polygon fill="#FFFFFF" points="53.8,33.2 54.4,32.6 57.6,35.8 57.6,35.8 57.6,35.8 54.4,39 53.8,38.4 56.4,35.8 		"/>
	</g>
	<g>
		<polygon fill="#FFFFFF" points="38.5,142.1 37.9,141.5 34.7,144.7 34.7,144.7 34.7,144.7 37.9,147.9 38.5,147.3 35.9,144.7 		"/>
		<polygon fill="#FFFFFF" points="50.3,142.1 50.9,141.5 54.1,144.7 54.1,144.7 54.1,144.7 50.9,147.9 50.3,147.3 52.9,144.7 		"/>
		
			<rect x="44" y="140.9" transform="matrix(-0.7074 -0.7068 0.7068 -0.7074 -26.4491 278.3917)" fill="#FFFFFF" width="0.7" height="7.5"/>
	</g>
</g>
<rect x="71.6" y="159.1" fill="#454545" width="56.8" height="28.4"/>
<rect x="48.3" y="183.9" fill="#454545" width="103.4" height="7.2"/>
</svg>
