<?xml version="1.0" encoding="utf-8"?>
<!-- Svg Vector Icons : http://www.onlinewebfonts.com/icon -->
<!DOCTYPE svg PUBLIC "-//W3C//DTD SVG 1.1//EN" "http://www.w3.org/Graphics/SVG/1.1/DTD/svg11.dtd">
<svg version="1.1" xmlns="http://www.w3.org/2000/svg" xmlns:xlink="http://www.w3.org/1999/xlink" x="0px" y="0px" viewBox="0 0 1000 1000" enable-background="new 0 0 1000 1000" xml:space="preserve">
<metadata> Svg Vector Icons : http://www.onlinewebfonts.com/icon </metadata>
<g><g><path d="M990,255c0-43.1-29.3-79.9-71.2-89.5l-398.5-92c-6.7-1.5-13.5-2.2-20.2-2.2c-6.8,0-13.6,0.7-20.7,2.3L81.2,165.5C39.3,175.1,10,211.9,10,255s29.3,79.9,71.2,89.5l81.9,18.9v259.1c0,81.3,93,153.1,336.9,153.1c243.8,0,336.9-71.8,336.9-153.1V363.4l81.9-18.9C960.7,334.9,990,298.1,990,255z M775.6,622.5c0,33.8-91.9,91.9-275.6,91.9s-275.6-58-275.6-91.9V377.6l255.4,58.9c6.7,1.5,13.5,2.2,20.3,2.2c6.8,0,13.6-0.7,20.6-2.3l255-58.8V622.5z M506.9,376.7c-2.3,0.5-4.6,0.8-6.9,0.8s-4.6-0.3-6.9-0.8L95,284.9c-13.9-3.2-23.7-15.6-23.7-29.9s9.8-26.6,23.7-29.9l398.1-91.9c2.3-0.5,4.6-0.8,6.9-0.8c2.3,0,4.6,0.3,6.9,0.8L905,225.1c13.9,3.2,23.7,15.6,23.7,29.9s-9.9,26.6-23.7,29.9L506.9,376.7z M898.1,408.1c0-16.9,13.7-30.6,30.6-30.6c16.9,0,30.6,13.7,30.6,30.6v275.6c0,16.9-13.7,30.6-30.6,30.6c-16.9,0-30.6-13.7-30.6-30.6V408.1z M928.8,745c33.8,0,61.3,88.7,61.3,122.5s-27.4,61.3-61.3,61.3c-33.8,0-61.3-27.4-61.3-61.3S894.9,745,928.8,745z"/></g></g>
</svg>