<?xml version="1.0" encoding="iso-8859-1"?>
<!-- Generator: Adobe Illustrator 19.0.0, SVG Export Plug-In . SVG Version: 6.00 Build 0)  -->
<svg version="1.1" id="Layer_1" xmlns="http://www.w3.org/2000/svg" xmlns:xlink="http://www.w3.org/1999/xlink" x="0px" y="0px"
	 viewBox="0 0 512 512" style="enable-background:new 0 0 512 512;" xml:space="preserve">
<path style="fill:#E4EAF6;" d="M432.552,105.931c-14.626,0-26.483-11.857-26.483-26.483V0H167.724
	c-14.626,0-26.483,11.857-26.483,26.483v61.793h220.69c9.751,0,17.655,7.905,17.655,17.655v123.586
	c0,9.75-7.904,17.655-17.655,17.655h-220.69v238.345c0,14.626,11.857,26.483,26.483,26.483h317.793
	C500.143,512,512,500.143,512,485.517V105.931H432.552z M279.896,426.311c3.448,3.448,3.448,9.035,0,12.483
	c-1.724,1.724-3.982,2.585-6.241,2.585s-4.518-0.862-6.241-2.586l-52.966-52.966c-3.448-3.448-3.448-9.035,0-12.483l52.966-52.966
	c3.448-3.448,9.035-3.448,12.483,0s3.448,9.035,0,12.483l-46.724,46.724L279.896,426.311z M361.37,312.069l-52.966,141.241
	c-1.332,3.542-4.694,5.724-8.267,5.724c-1.031,0-2.078-0.181-3.1-0.561c-4.565-1.716-6.879-6.802-5.169-11.371l52.966-141.241
	c1.716-4.561,6.802-6.854,11.367-5.164C360.767,302.414,363.082,307.5,361.37,312.069z M438.793,385.827l-52.966,52.966
	c-1.724,1.725-3.982,2.586-6.241,2.586s-4.518-0.862-6.241-2.586c-3.448-3.448-3.448-9.035,0-12.483l46.724-46.723l-46.724-46.724
	c-3.448-3.448-3.448-9.035,0-12.483s9.035-3.448,12.483,0l52.966,52.966C442.241,376.793,442.241,382.379,438.793,385.827z"/>
<path style="fill:#D2DCF0;" d="M432.552,105.931H512L406.069,0v79.448C406.069,94.074,417.926,105.931,432.552,105.931z"/>
<path style="fill:#FF694B;" d="M379.586,229.517V105.931c0-9.75-7.904-17.655-17.655-17.655h-220.69H17.655
	C7.904,88.276,0,96.181,0,105.931v123.586c0,9.75,7.904,17.655,17.655,17.655h123.586h220.69
	C371.682,247.172,379.586,239.267,379.586,229.517z M105.931,203.034c0,4.879-3.953,8.828-8.828,8.828
	c-4.875,0-8.828-3.948-8.828-8.828v-17.655H44.138v17.655c0,4.879-3.953,8.828-8.828,8.828s-8.828-3.948-8.828-8.828v-70.621
	c0-4.879,3.953-8.828,8.828-8.828s8.828,3.948,8.828,8.828v35.31h44.138v-35.31c0-4.879,3.953-8.828,8.828-8.828
	c4.875,0,8.828,3.948,8.828,8.828V203.034z M176.552,141.241h-17.655v61.793c0,4.879-3.953,8.828-8.828,8.828
	c-4.875,0-8.828-3.948-8.828-8.828v-61.793h-17.655c-4.875,0-8.828-3.948-8.828-8.828c0-4.879,3.953-8.828,8.828-8.828h52.966
	c4.875,0,8.828,3.948,8.828,8.828C185.379,137.293,181.427,141.241,176.552,141.241z M273.655,203.034
	c0,4.879-3.953,8.828-8.828,8.828S256,207.914,256,203.034v-38.75l-10.087,16.81c-1.594,2.655-4.469,4.285-7.569,4.285h-8.828
	c-3.1,0-5.974-1.63-7.569-4.285l-10.087-16.81v38.75c0,4.879-3.953,8.828-8.828,8.828s-8.828-3.948-8.828-8.828v-70.621
	c0-3.966,2.646-7.448,6.47-8.509c3.84-1.043,7.887,0.569,9.927,3.966l23.328,38.879l23.328-38.879
	c2.039-3.414,6.087-5.017,9.927-3.966c3.823,1.06,6.47,4.543,6.47,8.509V203.034z M344.276,211.862h-44.138
	c-4.875,0-8.828-3.948-8.828-8.828v-70.621c0-4.879,3.953-8.828,8.828-8.828s8.828,3.948,8.828,8.828v61.793h35.31
	c4.875,0,8.828,3.948,8.828,8.828S349.151,211.862,344.276,211.862z"/>
<g>
	<path style="fill:#FFFFFF;" d="M97.103,123.586c-4.875,0-8.828,3.948-8.828,8.828v35.31H44.138v-35.31
		c0-4.879-3.953-8.828-8.828-8.828s-8.828,3.948-8.828,8.828v70.621c0,4.879,3.953,8.828,8.828,8.828s8.828-3.948,8.828-8.828
		v-17.655h44.138v17.655c0,4.879,3.953,8.828,8.828,8.828c4.875,0,8.828-3.948,8.828-8.828v-70.621
		C105.931,127.534,101.978,123.586,97.103,123.586z"/>
	<path style="fill:#FFFFFF;" d="M267.186,123.905c-3.84-1.052-7.887,0.552-9.927,3.966l-23.328,38.879l-23.328-38.879
		c-2.039-3.396-6.087-5.009-9.927-3.966c-3.823,1.06-6.47,4.543-6.47,8.509v70.621c0,4.879,3.953,8.828,8.828,8.828
		s8.828-3.948,8.828-8.828v-38.75l10.087,16.81c1.594,2.655,4.47,4.285,7.569,4.285h8.828c3.1,0,5.974-1.63,7.569-4.285L256,164.285
		v38.75c0,4.879,3.953,8.828,8.828,8.828s8.828-3.948,8.828-8.828v-70.621C273.655,128.448,271.009,124.966,267.186,123.905z"/>
	<path style="fill:#FFFFFF;" d="M176.552,123.586h-52.966c-4.875,0-8.828,3.948-8.828,8.828c0,4.879,3.953,8.828,8.828,8.828h17.655
		v61.793c0,4.879,3.953,8.828,8.828,8.828c4.875,0,8.828-3.948,8.828-8.828v-61.793h17.655c4.875,0,8.828-3.948,8.828-8.828
		C185.379,127.534,181.427,123.586,176.552,123.586z"/>
	<path style="fill:#FFFFFF;" d="M344.276,194.207h-35.31v-61.793c0-4.879-3.953-8.828-8.828-8.828s-8.828,3.948-8.828,8.828v70.621
		c0,4.879,3.953,8.828,8.828,8.828h44.138c4.875,0,8.828-3.948,8.828-8.828S349.151,194.207,344.276,194.207z"/>
</g>
<g>
	<path style="fill:#FF694B;" d="M356.203,300.698c-4.565-1.689-9.651,0.604-11.367,5.164l-52.966,141.241
		c-1.711,4.569,0.604,9.655,5.169,11.371c1.022,0.38,2.069,0.561,3.1,0.561c3.573,0,6.935-2.181,8.267-5.725l52.966-141.241
		C363.082,307.5,360.767,302.414,356.203,300.698z"/>
	<path style="fill:#FF694B;" d="M279.896,320.38c-3.448-3.448-9.035-3.448-12.483,0l-52.966,52.966
		c-3.448,3.448-3.448,9.035,0,12.483l52.966,52.966c1.725,1.725,3.982,2.586,6.241,2.586c2.259,0,4.518-0.862,6.241-2.586
		c3.448-3.448,3.448-9.035,0-12.483l-46.722-46.724l46.724-46.724C283.345,329.414,283.345,323.828,279.896,320.38z"/>
	<path style="fill:#FF694B;" d="M385.827,320.38c-3.448-3.448-9.035-3.448-12.483,0s-3.448,9.035,0,12.483l46.725,46.723
		l-46.724,46.724c-3.448,3.448-3.448,9.035,0,12.483c1.725,1.725,3.982,2.586,6.241,2.586s4.518-0.862,6.241-2.586l52.966-52.966
		c3.448-3.448,3.448-9.035,0-12.483L385.827,320.38z"/>
</g>
<g>
</g>
<g>
</g>
<g>
</g>
<g>
</g>
<g>
</g>
<g>
</g>
<g>
</g>
<g>
</g>
<g>
</g>
<g>
</g>
<g>
</g>
<g>
</g>
<g>
</g>
<g>
</g>
<g>
</g>
</svg>
